<svg width="331" height="329" viewBox="0 0 331 329" fill="none" xmlns="http://www.w3.org/2000/svg">
<path d="M141.5 48.9998L266 141L184 286L31.4998 233.5L42.4998 89.4998L141.5 48.9998Z" fill="url(#paint0_linear_22_13)"/>
<path d="M228 48L252.5 179L228 253.5L61.5003 236L49 124L105 80.5L228 48Z" fill="url(#paint1_linear_22_13)"/>
<path d="M133 85.6184C137.951 82.7603 144.05 82.7602 149 85.6184L211.809 121.881C216.759 124.739 219.809 130.021 219.809 135.737V208.262C219.809 213.978 216.759 219.26 211.809 222.118L149 258.381C144.05 261.239 137.951 261.239 133 258.381L70.1922 222.118C65.2418 219.26 62.1922 213.978 62.1922 208.262V135.737C62.1922 130.021 65.2418 124.739 70.1922 121.881L133 85.6184Z" fill="#1C2940"/>
<path d="M125.753 191C125.156 189.25 124.537 187.522 123.897 185.816C123.257 184.109 122.639 182.36 122.041 180.568H103.353C102.756 182.36 102.137 184.13 101.497 185.88C100.9 187.586 100.303 189.293 99.7052 191H91.3212C92.9852 186.264 94.5639 181.89 96.0572 177.88C97.5506 173.869 99.0012 170.072 100.409 166.488C101.86 162.904 103.289 159.49 104.697 156.248C106.105 153.005 107.556 149.805 109.049 146.648H116.665C118.159 149.805 119.609 153.005 121.017 156.248C122.425 159.49 123.833 162.904 125.241 166.488C126.692 170.072 128.164 173.869 129.657 177.88C131.193 181.89 132.793 186.264 134.457 191H125.753ZM112.697 155.224C111.716 157.485 110.585 160.237 109.305 163.48C108.068 166.722 106.767 170.242 105.401 174.04H119.993C118.628 170.242 117.305 166.701 116.025 163.416C114.745 160.13 113.636 157.4 112.697 155.224ZM164.279 176.408C164.279 178.584 164.044 180.61 163.575 182.488C163.105 184.365 162.273 186.008 161.079 187.416C159.927 188.824 158.348 189.933 156.343 190.744C154.38 191.554 151.884 191.96 148.855 191.96C146.039 191.96 143.585 191.576 141.495 190.808C139.447 189.997 137.868 189.144 136.759 188.248L139.639 181.912C140.705 182.637 142.007 183.341 143.543 184.024C145.121 184.664 146.721 184.984 148.343 184.984C151.073 184.984 153.057 184.301 154.295 182.936C155.532 181.57 156.151 179.224 156.151 175.896V146.648H164.279V176.408ZM169.251 196.376H201.251V202.84H169.251V196.376Z" fill="white"/>
<defs>
<linearGradient id="paint0_linear_22_13" x1="148.75" y1="48.9998" x2="148.75" y2="286" gradientUnits="userSpaceOnUse">
<stop stop-color="#6193EF"/>
<stop offset="1" stop-color="#072F79"/>
</linearGradient>
<linearGradient id="paint1_linear_22_13" x1="264.596" y1="94.9089" x2="86.7748" y2="255.094" gradientUnits="userSpaceOnUse">
<stop stop-color="#F04250"/>
<stop offset="0.496962" stop-color="#824879"/>
<stop offset="1" stop-color="#194491"/>
</linearGradient>
</defs>
</svg>
